<?xml version="1.0" encoding="utf-8"?>
<!-- Generator: Adobe Illustrator 22.0.1, SVG Export Plug-In . SVG Version: 6.00 Build 0)  -->
<svg version="1.1" id="圖層_1" xmlns="http://www.w3.org/2000/svg" xmlns:xlink="http://www.w3.org/1999/xlink" x="0px" y="0px"
	 viewBox="0 0 102 34" style="enable-background:new 0 0 102 34;" xml:space="preserve">
<style type="text/css">
	.st0{fill:#D01600;}
</style>
<path class="st0" d="M2.5,3.6h2.8v8.3l8.7-8.3h3.9l-9.9,9.5l9.9,11h-3.6L5.3,14v10H2.5V3.6z"/>
<path class="st0" d="M19.4,3.6h3.1l5,8.2l5-8.2h3.1l-6.7,11.1V24h-2.8v-9.3L19.4,3.6z"/>
<path class="st0" d="M36.6,13.7c0-3,1.1-5.5,3.3-7.6s4.9-3.2,8-3.2c3,0,5.7,1.1,7.9,3.2c2.2,2.1,3.3,4.6,3.3,7.6
	c0,3.1-1.1,5.7-3.3,7.8c-2.2,2.1-4.8,3.2-8,3.2c-3.1,0-5.8-1.1-8-3.2C37.7,19.3,36.6,16.7,36.6,13.7z M56.2,13.8
	c0-2.3-0.8-4.2-2.4-5.7c-1.6-1.5-3.6-2.3-6-2.3c-2.3,0-4.2,0.8-5.8,2.4c-1.6,1.6-2.4,3.5-2.4,5.7c0,2.2,0.8,4.1,2.5,5.7
	s3.7,2.3,6.1,2.3c2.2,0,4.1-0.8,5.7-2.4C55.4,17.8,56.2,16,56.2,13.8z"/>
<path class="st0" d="M60.9,3.6h12.5v2.8h-4.9V24h-2.8V6.4h-4.9V3.6z"/>
<path class="st0" d="M75,13.7c0-3,1.1-5.5,3.3-7.6s4.9-3.2,8-3.2c3,0,5.7,1.1,7.9,3.2c2.2,2.1,3.3,4.6,3.3,7.6
	c0,3.1-1.1,5.7-3.3,7.8c-2.2,2.1-4.9,3.2-8,3.2c-3.1,0-5.8-1.1-8-3.2C76.1,19.3,75,16.7,75,13.7z M94.6,13.8c0-2.3-0.8-4.2-2.4-5.7
	c-1.6-1.5-3.6-2.3-6-2.3c-2.3,0-4.2,0.8-5.8,2.4c-1.6,1.6-2.4,3.5-2.4,5.7c0,2.2,0.8,4.1,2.5,5.7c1.7,1.5,3.7,2.3,6.1,2.3
	c2.2,0,4.1-0.8,5.7-2.4C93.8,17.8,94.6,16,94.6,13.8z"/>
<circle class="st0" cx="47.9" cy="17.8" r="6.2"/>
<circle class="st0" cx="86.3" cy="17.8" r="6.2"/>
<path class="st0" d="M86.5,21.8c-2.2,4.5-10.2,7.9-19.7,7.9s-17.5-3.4-19.7-7.9h-1.6c2,5.4,10.7,9.4,21.3,9.4s19.3-4,21.3-9.4H86.5z
	"/>
</svg>
